<svg width="32" height="32" viewBox="0 0 32 32" fill="none" xmlns="http://www.w3.org/2000/svg">
<path d="M27.6953 12.208L25.8713 6.73467C25.6068 5.93798 25.0978 5.24493 24.4168 4.75401C23.7359 4.26309 22.9175 3.99926 22.078 4H9.92068C9.0812 3.99926 8.26283 4.26309 7.58186 4.75401C6.90089 5.24493 6.39195 5.93798 6.12735 6.73467L4.30335 12.208C3.81883 12.4113 3.40505 12.753 3.11381 13.1904C2.82257 13.6277 2.6668 14.1412 2.66602 14.6667V21.3333C2.66602 22.3373 3.23002 23.2027 4.05135 23.6573C4.03402 23.7453 3.99935 23.8253 3.99935 23.9173V26.6667C3.99935 27.0203 4.13982 27.3594 4.38987 27.6095C4.63992 27.8595 4.97906 28 5.33268 28H6.66602C7.01964 28 7.35878 27.8595 7.60882 27.6095C7.85887 27.3594 7.99935 27.0203 7.99935 26.6667V24H23.9993V26.6667C23.9993 27.0203 24.1398 27.3594 24.3899 27.6095C24.6399 27.8595 24.9791 28 25.3327 28H26.666C27.0196 28 27.3588 27.8595 27.6088 27.6095C27.8589 27.3594 27.9993 27.0203 27.9993 26.6667V23.9173C27.9993 23.8253 27.9647 23.744 27.9473 23.6573C28.3652 23.4295 28.7142 23.0937 28.9579 22.6848C29.2016 22.276 29.331 21.8093 29.3327 21.3333V14.6667C29.3327 13.5613 28.6553 12.612 27.6953 12.208ZM5.33268 21.3333V14.6667H26.666L26.6687 21.3333H5.33268ZM9.92068 6.66667H22.0767C22.6514 6.66667 23.1607 7.032 23.342 7.57867L24.8167 12H7.18202L8.65535 7.57867C8.74381 7.31306 8.91364 7.08204 9.14075 6.91834C9.36786 6.75465 9.64073 6.6666 9.92068 6.66667Z" fill="#777E91"/>
<path d="M8.66602 20C9.77059 20 10.666 19.1046 10.666 18C10.666 16.8954 9.77059 16 8.66602 16C7.56145 16 6.66602 16.8954 6.66602 18C6.66602 19.1046 7.56145 20 8.66602 20Z" fill="#777E91"/>
<path d="M23.332 20C24.4366 20 25.332 19.1046 25.332 18C25.332 16.8954 24.4366 16 23.332 16C22.2275 16 21.332 16.8954 21.332 18C21.332 19.1046 22.2275 20 23.332 20Z" fill="#777E91"/>
</svg>
